<?xml version="1.0" standalone="no"?>
<!DOCTYPE svg PUBLIC "-//W3C//DTD SVG 20010904//EN"
 "http://www.w3.org/TR/2001/REC-SVG-20010904/DTD/svg10.dtd">
<svg version="1.0" xmlns="http://www.w3.org/2000/svg"
 width="360.000000pt" height="360.000000pt" viewBox="0 0 360.000000 360.000000"
 preserveAspectRatio="xMidYMid meet">
<metadata>
Created by potrace 1.11, written by Peter Selinger 2001-2013
</metadata>
<g transform="translate(0.000000,360.000000) scale(0.100000,-0.100000)"
fill="#000000" stroke="none">
<path d="M3115 2821 c-133 -7 -171 -20 -222 -73 -67 -70 -102 -166 -184 -512
-24 -98 -45 -174 -46 -169 -2 5 -32 116 -68 247 -71 263 -113 363 -178 430
-59 62 -90 68 -330 64 -192 -3 -204 -4 -252 -28 -101 -51 -151 -156 -229 -486
-30 -124 -56 -227 -58 -230 -3 -2 -31 94 -63 214 -90 332 -148 451 -244 496
-43 20 -60 21 -251 18 -241 -3 -279 -12 -336 -74 -69 -77 -99 -163 -201 -581
-52 -216 -106 -415 -119 -443 -30 -64 -103 -133 -141 -136 -16 -1 -47 0 -70 1
-24 2 -43 -1 -43 -6 0 -14 60 -72 93 -91 27 -14 63 -17 237 -19 179 -1 211 1
256 18 62 24 112 72 152 147 41 78 58 134 117 384 l51 217 66 -243 c71 -261
113 -365 179 -439 55 -63 86 -69 323 -68 190 2 202 3 252 27 107 50 154 145
235 472 33 130 61 241 62 246 2 4 29 -90 62 -210 78 -289 104 -353 182 -451
53 -67 102 -77 337 -71 215 6 257 17 316 84 71 81 95 154 200 588 94 386 118
456 181 525 30 33 36 35 110 39 44 3 79 7 79 9 0 19 -59 74 -93 88 -49 20
-182 26 -362 16z"/>
</g>
</svg>
