<?xml version="1.0" standalone="no"?>
<!DOCTYPE svg PUBLIC "-//W3C//DTD SVG 20010904//EN"
 "http://www.w3.org/TR/2001/REC-SVG-20010904/DTD/svg10.dtd">
<svg version="1.0" xmlns="http://www.w3.org/2000/svg"
 width="360.000000pt" height="360.000000pt" viewBox="0 0 360.000000 360.000000"
 preserveAspectRatio="xMidYMid meet">
<metadata>
Created by potrace 1.11, written by Peter Selinger 2001-2013
</metadata>
<g transform="translate(0.000000,360.000000) scale(0.100000,-0.100000)"
fill="#000000" stroke="none">
<path d="M2983 2799 c-68 -26 -123 -88 -163 -185 -17 -41 -56 -177 -86 -302
-62 -254 -64 -265 -69 -260 -2 2 -31 105 -65 228 -66 244 -96 331 -140 400
-75 117 -108 128 -385 120 -239 -6 -251 -10 -309 -86 -55 -72 -92 -175 -153
-433 -32 -133 -60 -241 -63 -241 -3 0 -36 111 -72 246 -71 258 -111 359 -173
431 -54 64 -100 74 -320 73 -217 -1 -267 -12 -319 -70 -75 -84 -97 -147 -211
-620 -47 -195 -96 -377 -110 -405 -50 -104 -136 -161 -224 -148 l-36 5 41 -40
c59 -57 112 -66 337 -58 201 8 241 19 295 80 66 76 96 156 173 474 28 117 53
212 54 210 2 -2 31 -105 65 -228 67 -251 88 -309 137 -392 41 -69 81 -104 136
-119 65 -18 400 -12 460 7 114 38 165 136 250 484 33 135 63 248 66 253 4 4
37 -104 74 -240 97 -356 151 -453 273 -489 51 -14 85 -16 244 -10 164 6 190 9
236 30 53 25 86 61 124 136 38 76 57 141 145 508 89 371 110 432 165 495 45
51 79 67 145 67 l56 0 -18 25 c-10 14 -36 36 -58 48 -37 20 -55 22 -245 24
-187 3 -210 1 -257 -18z"/>
</g>
</svg>
